{
  "accessors": [
    {
      "bufferView": 2,
      "componentType": 5126,
      "count": 562,
      "max": [
        4.1163949966430664,
        1.1462452411651611,
        0.48598176240921021
      ],
      "min": [
        -4.1176939010620117,
        -0.022062778472900391,
        -3.3241548538208008
      ],
      "type": "VEC3"
    },
    {
      "bufferView": 2,
      "byteOffset": 6744,
      "componentType": 5126,
      "count": 562,
      "max": [
        0.99468421936035156,
        1,
        0.99377089738845825
      ],
      "min": [
        -0.99468410015106201,
        -1,
        -0.96905511617660522
      ],
      "type": "VEC3"
    },
    {
      "bufferView": 3,
      "componentType": 5126,
      "count": 562,
      "max": [
        0.95053786039352417,
        0.99972093105316162,
        0.99204379320144653,
        1
      ],
      "min": [
        -0.95025163888931274,
        -0.99971425533294678,
        -0.99209243059158325,
        1
      ],
      "type": "VEC4"
    },
    {
      "bufferView": 1,
      "componentType": 5126,
      "count": 562,
      "max": [
        0.52289164066314697,
        0.89638924598693848
      ],
      "min": [
        0.0048493742942810059,
        0.28162986040115356
      ],
      "type": "VEC2"
    },
    {
      "bufferView": 0,
      "componentType": 5125,
      "count": 2760,
      "max": [
        561
      ],
      "min": [
        0
      ],
      "type": "SCALAR"
    },
    {
      "bufferView": 2,
      "byteOffset": 13488,
      "componentType": 5126,
      "count": 250,
      "max": [
        1.3373603820800781,
        28.236642837524414,
        1.2901345491409302
      ],
      "min": [
        -1.3403337001800537,
        27.704275131225586,
        0.61333608627319336
      ],
      "type": "VEC3"
    },
    {
      "bufferView": 2,
      "byteOffset": 16488,
      "componentType": 5126,
      "count": 250,
      "max": [
        0.99031347036361694,
        0.9988476037979126,
        0.99587148427963257
      ],
      "min": [
        -0.99031525850296021,
        -0.99752235412597656,
        -0.86471492052078247
      ],
      "type": "VEC3"
    },
    {
      "bufferView": 3,
      "byteOffset": 8992,
      "componentType": 5126,
      "count": 250,
      "max": [
        0.98375189304351807,
        0.99453067779541016,
        0.98064053058624268,
        1
      ],
      "min": [
        -0.91509801149368286,
        -0.99452906847000122,
        -0.9806441068649292,
        1
      ],
      "type": "VEC4"
    },
    {
      "bufferView": 1,
      "byteOffset": 4496,
      "componentType": 5126,
      "count": 250,
      "max": [
        0.99223238229751587,
        0.60869580507278442
      ],
      "min": [
        0.90752333402633667,
        0.50094902515411377
      ],
      "type": "VEC2"
    },
    {
      "bufferView": 0,
      "byteOffset": 11040,
      "componentType": 5125,
      "count": 1248,
      "max": [
        249
      ],
      "min": [
        0
      ],
      "type": "SCALAR"
    },
    {
      "bufferView": 2,
      "byteOffset": 19488,
      "componentType": 5126,
      "count": 312,
      "max": [
        1.404655933380127,
        26.248912811279297,
        1.5369977951049805
      ],
      "min": [
        -1.4046930074691772,
        25.601272583007812,
        0.59182965755462646
      ],
      "type": "VEC3"
    },
    {
      "bufferView": 2,
      "byteOffset": 23232,
      "componentType": 5126,
      "count": 312,
      "max": [
        0.90639138221740723,
        0.99590367078781128,
        0.99305886030197144
      ],
      "min": [
        -0.90638893842697144,
        -0.99977356195449829,
        -0.96496778726577759
      ],
      "type": "VEC3"
    },
    {
      "bufferView": 3,
      "byteOffset": 12992,
      "componentType": 5126,
      "count": 312,
      "max": [
        0.9986196756362915,
        0.99305504560470581,
        0.99976444244384766,
        1
      ],
      "min": [
        -0.99859267473220825,
        -0.8045729398727417,
        -0.99660325050354004,
        1
      ],
      "type": "VEC4"
    },
    {
      "bufferView": 1,
      "byteOffset": 6496,
      "componentType": 5126,
      "count": 312,
      "max": [
        0.98910224437713623,
        0.87270873785018921
      ],
      "min": [
        0.94918102025985718,
        0.64740419387817383
      ],
      "type": "VEC2"
    },
    {
      "bufferView": 0,
      "byteOffset": 16032,
      "componentType": 5125,
      "count": 1632,
      "max": [
        311
      ],
      "min": [
        0
      ],
      "type": "SCALAR"
    },
    {
      "bufferView": 2,
      "byteOffset": 26976,
      "componentType": 5126,
      "count": 718,
      "max": [
        3.2973718643188477,
        29.962406158447266,
        1.4367351531982422
      ],
      "min": [
        -3.2216315269470215,
        20.498191833496094,
        -4.2398056983947754
      ],
      "type": "VEC3"
    },
    {
      "bufferView": 2,
      "byteOffset": 35592,
      "componentType": 5126,
      "count": 718,
      "max": [
        0.99925565719604492,
        0.97634130716323853,
        0.98456531763076782
      ],
      "min": [
        -0.99816936254501343,
        -0.99747318029403687,
        -0.99997317790985107
      ],
      "type": "VEC3"
    },
    {
      "bufferView": 3,
      "byteOffset": 17984,
      "componentType": 5126,
      "count": 718,
      "max": [
        0.99748921394348145,
        0.99984824657440186,
        0.99976283311843872,
        1
      ],
      "min": [
        -0.99217802286148071,
        -0.97706848382949829,
        -0.99738401174545288,
        1
      ],
      "type": "VEC4"
    },
    {
      "bufferView": 1,
      "byteOffset": 8992,
      "componentType": 5126,
      "count": 718,
      "max": [
        0.83465361595153809,
        0.5039171576499939
      ],
      "min": [
        0.49059590697288513,
        0.0063762664794921875
      ],
      "type": "VEC2"
    },
    {
      "bufferView": 0,
      "byteOffset": 22560,
      "componentType": 5125,
      "count": 3702,
      "max": [
        717
      ],
      "min": [
        0
      ],
      "type": "SCALAR"
    },
    {
      "bufferView": 2,
      "byteOffset": 44208,
      "componentType": 5126,
      "count": 744,
      "max": [
        4.7121415138244629,
        15.432188987731934,
        1.7489378452301025
      ],
      "min": [
        -4.7121415138244629,
        8.5002040863037109,
        -3.8330221176147461
      ],
      "type": "VEC3"
    },
    {
      "bufferView": 2,
      "byteOffset": 53136,
      "componentType": 5126,
      "count": 744,
      "max": [
        0.99955958127975464,
        0.5041852593421936,
        0.99530673027038574
      ],
      "min": [
        -0.99955958127975464,
        -0.99946886301040649,
        -0.99993151426315308
      ],
      "type": "VEC3"
    },
    {
      "bufferView": 3,
      "byteOffset": 29472,
      "componentType": 5126,
      "count": 744,
      "max": [
        0.99959456920623779,
        0.62126398086547852,
        0.9932740330696106,
        1
      ],
      "min": [
        -0.9997285008430481,
        -0.62536323070526123,
        -0.99991309642791748,
        1
      ],
      "type": "VEC4"
    },
    {
      "bufferView": 1,
      "byteOffset": 14736,
      "componentType": 5126,
      "count": 744,
      "max": [
        0.74307900667190552,
        0.75297796726226807
      ],
      "min": [
        0.0054647922515869141,
        0.52929747104644775
      ],
      "type": "VEC2"
    },
    {
      "bufferView": 0,
      "byteOffset": 37368,
      "componentType": 5125,
      "count": 3948,
      "max": [
        743
      ],
      "min": [
        0
      ],
      "type": "SCALAR"
    },
    {
      "bufferView": 2,
      "byteOffset": 62064,
      "componentType": 5126,
      "count": 424,
      "max": [
        3.8156204223632812,
        4.6565632820129395,
        -1.0686886310577393
      ],
      "min": [
        -3.8170809745788574,
        0.12332852184772491,
        -3.2448372840881348
      ],
      "type": "VEC3"
    },
    {
      "bufferView": 2,
      "byteOffset": 67152,
      "componentType": 5126,
      "count": 424,
      "max": [
        0.99992340803146362,
        0.99895334243774414,
        0.98580420017242432
      ],
      "min": [
        -0.99989122152328491,
        -0.28156659007072449,
        -0.99819183349609375
      ],
      "type": "VEC3"
    },
    {
      "bufferView": 3,
      "byteOffset": 41376,
      "componentType": 5126,
      "count": 424,
      "max": [
        0.99486863613128662,
        0.69181984663009644,
        0.99915772676467896,
        1
      ],
      "min": [
        -0.99971520900726318,
        -0.70218569040298462,
        -0.99914532899856567,
        1
      ],
      "type": "VEC4"
    },
    {
      "bufferView": 1,
      "byteOffset": 20688,
      "componentType": 5126,
      "count": 424,
      "max": [
        0.27228462696075439,
        0.58824461698532104
      ],
      "min": [
        0.0072189569473266602,
        0.39590036869049072
      ],
      "type": "VEC2"
    },
    {
      "bufferView": 0,
      "byteOffset": 53160,
      "componentType": 5125,
      "count": 2148,
      "max": [
        423
      ],
      "min": [
        0
      ],
      "type": "SCALAR"
    },
    {
      "bufferView": 2,
      "byteOffset": 72240,
      "componentType": 5126,
      "count": 228,
      "max": [
        1.1688375473022461,
        27.9095458984375,
        0.79228556156158447
      ],
      "min": [
        -1.1728193759918213,
        26.817710876464844,
        -0.29954826831817627
      ],
      "type": "VEC3"
    },
    {
      "bufferView": 2,
      "byteOffset": 74976,
      "componentType": 5126,
      "count": 228,
      "max": [
        1,
        1,
        1
      ],
      "min": [
        -1,
        -1,
        -1
      ],
      "type": "VEC3"
    },
    {
      "bufferView": 3,
      "byteOffset": 48160,
      "componentType": 5126,
      "count": 228,
      "max": [
        0.3880864679813385,
        0.99997413158416748,
        0.99775117635726929,
        1
      ],
      "min": [
        -0.75279754400253296,
        -0.079634606838226318,
        -0.99775153398513794,
        1
      ],
      "type": "VEC4"
    },
    {
      "bufferView": 1,
      "byteOffset": 24080,
      "componentType": 5126,
      "count": 228,
      "max": [
        0.50996595621109009,
        0.53091907501220703
      ],
      "min": [
        0.2717919647693634,
        0.24975824356079102
      ],
      "type": "VEC2"
    },
    {
      "bufferView": 0,
      "byteOffset": 61752,
      "componentType": 5125,
      "count": 1152,
      "max": [
        227
      ],
      "min": [
        0
      ],
      "type": "SCALAR"
    },
    {
      "bufferView": 2,
      "byteOffset": 77712,
      "componentType": 5126,
      "count": 4986,
      "max": [
        10.393728256225586,
        29.596136093139648,
        1.7628116607666016
      ],
      "min": [
        -10.393725395202637,
        3.8879456520080566,
        -3.7545933723449707
      ],
      "type": "VEC3"
    },
    {
      "bufferView": 2,
      "byteOffset": 137544,
      "componentType": 5126,
      "count": 4986,
      "max": [
        0.99980521202087402,
        0.99999809265136719,
        1
      ],
      "min": [
        -0.99980521202087402,
        -0.99532598257064819,
        -0.9995158314704895
      ],
      "type": "VEC3"
    },
    {
      "bufferView": 3,
      "byteOffset": 51808,
      "componentType": 5126,
      "count": 4986,
      "max": [
        1,
        0.99947154521942139,
        0.99811065196990967,
        1
      ],
      "min": [
        -0.99874985218048096,
        -0.99997758865356445,
        -0.99943625926971436,
        1
      ],
      "type": "VEC4"
    },
    {
      "bufferView": 1,
      "byteOffset": 25904,
      "componentType": 5126,
      "count": 4986,
      "max": [
        0.99625200033187866,
        0.9963078498840332
      ],
      "min": [
        0.0064479410648345947,
        0.0067698955535888672
      ],
      "type": "VEC2"
    },
    {
      "bufferView": 0,
      "byteOffset": 66360,
      "componentType": 5125,
      "count": 26844,
      "max": [
        4985
      ],
      "min": [
        0
      ],
      "type": "SCALAR"
    },
    {
      "bufferView": 2,
      "byteOffset": 197376,
      "componentType": 5126,
      "count": 990,
      "max": [
        6.961212158203125,
        24.795942306518555,
        4.4699153900146484
      ],
      "min": [
        -6.9612150192260742,
        10.84283447265625,
        -4.4258942604064941
      ],
      "type": "VEC3"
    },
    {
      "bufferView": 2,
      "byteOffset": 209256,
      "componentType": 5126,
      "count": 990,
      "max": [
        0.99932730197906494,
        0.99983233213424683,
        0.99923139810562134
      ],
      "min": [
        -0.99932819604873657,
        -0.99998962879180908,
        -0.99988335371017456
      ],
      "type": "VEC3"
    },
    {
      "bufferView": 3,
      "byteOffset": 131584,
      "componentType": 5126,
      "count": 990,
      "max": [
        1,
        0.96091896295547485,
        0.99995219707489014,
        1
      ],
      "min": [
        -1,
        -0.91764354705810547,
        -0.99914348125457764,
        1
      ],
      "type": "VEC4"
    },
    {
      "bufferView": 1,
      "byteOffset": 65792,
      "componentType": 5126,
      "count": 990,
      "max": [
        0.58700394630432129,
        0.99628657102584839
      ],
      "min": [
        0.0085023045539855957,
        0.7170528769493103
      ],
      "type": "VEC2"
    },
    {
      "bufferView": 0,
      "byteOffset": 173736,
      "componentType": 5125,
      "count": 5256,
      "max": [
        989
      ],
      "min": [
        0
      ],
      "type": "SCALAR"
    }
  ],
  "asset": {
    "extras": {
      "author": "Sid (https://sketchfab.com/sidca)",
      "license": "CC-BY-4.0 (http://creativecommons.org/licenses/by/4.0/)",
      "source": "https://sketchfab.com/3d-models/patrick-the-fatboy-9b2f6bab4e0c4d109ec2e0dc311e6c0b",
      "title": "Patrick, The FatBoy"
    },
    "generator": "Sketchfab-8.1.0",
    "version": "2.0"
  },
  "bufferViews": [
    {
      "buffer": 0,
      "byteLength": 194760,
      "byteOffset": 0,
      "name": "floatBufferViews",
      "target": 34963
    },
    {
      "buffer": 0,
      "byteLength": 73712,
      "byteOffset": 194760,
      "byteStride": 8,
      "name": "floatBufferViews",
      "target": 34962
    },
    {
      "buffer": 0,
      "byteLength": 221136,
      "byteOffset": 268472,
      "byteStride": 12,
      "name": "floatBufferViews",
      "target": 34962
    },
    {
      "buffer": 0,
      "byteLength": 147424,
      "byteOffset": 489608,
      "byteStride": 16,
      "name": "floatBufferViews",
      "target": 34962
    }
  ],
  "buffers": [
    {
      "byteLength": 637032,
      "uri": "scene.bin"
    }
  ],
  "images": [
    {
      "uri": "textures/lambert1_baseColor.png"
    },
    {
      "uri": "textures/lambert1_metallicRoughness.png"
    },
    {
      "uri": "textures/lambert1_normal.png"
    }
  ],
  "materials": [
    {
      "doubleSided": true,
      "emissiveFactor": [
        0,
        0,
        0
      ],
      "name": "lambert1",
      "normalTexture": {
        "index": 2,
        "scale": 1,
        "texCoord": 0
      },
      "pbrMetallicRoughness": {
        "baseColorFactor": [
          1,
          1,
          1,
          1
        ],
        "baseColorTexture": {
          "index": 0,
          "texCoord": 0
        },
        "metallicFactor": 1,
        "metallicRoughnessTexture": {
          "index": 1,
          "texCoord": 0
        },
        "roughnessFactor": 1
      }
    }
  ],
  "meshes": [
    {
      "name": "Pantofole_LO_lambert1_0",
      "primitives": [
        {
          "attributes": {
            "NORMAL": 1,
            "POSITION": 0,
            "TANGENT": 2,
            "TEXCOORD_0": 3
          },
          "indices": 4,
          "material": 0,
          "mode": 4
        }
      ]
    },
    {
      "name": "Sopracciglia_LO_lambert1_0",
      "primitives": [
        {
          "attributes": {
            "NORMAL": 6,
            "POSITION": 5,
            "TANGENT": 7,
            "TEXCOORD_0": 8
          },
          "indices": 9,
          "material": 0,
          "mode": 4
        }
      ]
    },
    {
      "name": "Baffi_LO_lambert1_0",
      "primitives": [
        {
          "attributes": {
            "NORMAL": 11,
            "POSITION": 10,
            "TANGENT": 12,
            "TEXCOORD_0": 13
          },
          "indices": 14,
          "material": 0,
          "mode": 4
        }
      ]
    },
    {
      "name": "Capelli_LO_lambert1_0",
      "primitives": [
        {
          "attributes": {
            "NORMAL": 16,
            "POSITION": 15,
            "TANGENT": 17,
            "TEXCOORD_0": 18
          },
          "indices": 19,
          "material": 0,
          "mode": 4
        }
      ]
    },
    {
      "name": "Pantaloni_LO_lambert1_0",
      "primitives": [
        {
          "attributes": {
            "NORMAL": 21,
            "POSITION": 20,
            "TANGENT": 22,
            "TEXCOORD_0": 23
          },
          "indices": 24,
          "material": 0,
          "mode": 4
        }
      ]
    },
    {
      "name": "Calze_LO_lambert1_0",
      "primitives": [
        {
          "attributes": {
            "NORMAL": 26,
            "POSITION": 25,
            "TANGENT": 27,
            "TEXCOORD_0": 28
          },
          "indices": 29,
          "material": 0,
          "mode": 4
        }
      ]
    },
    {
      "name": "Occhi_LO_lambert1_0",
      "primitives": [
        {
          "attributes": {
            "NORMAL": 31,
            "POSITION": 30,
            "TANGENT": 32,
            "TEXCOORD_0": 33
          },
          "indices": 34,
          "material": 0,
          "mode": 4
        }
      ]
    },
    {
      "name": "Corpo_LO_lambert1_0",
      "primitives": [
        {
          "attributes": {
            "NORMAL": 36,
            "POSITION": 35,
            "TANGENT": 37,
            "TEXCOORD_0": 38
          },
          "indices": 39,
          "material": 0,
          "mode": 4
        }
      ]
    },
    {
      "name": "Maglia_LO_lambert1_0",
      "primitives": [
        {
          "attributes": {
            "NORMAL": 41,
            "POSITION": 40,
            "TANGENT": 42,
            "TEXCOORD_0": 43
          },
          "indices": 44,
          "material": 0,
          "mode": 4
        }
      ]
    }
  ],
  "nodes": [
    {
      "children": [
        1
      ],
      "name": "RootNode (gltf orientation matrix)",
      "rotation": [
        -0.70710678118654746,
        -0,
        -0,
        0.70710678118654757
      ]
    },
    {
      "children": [
        2
      ],
      "name": "RootNode (model correction matrix)"
    },
    {
      "children": [
        3
      ],
      "matrix": [
        1,
        0,
        0,
        0,
        0,
        0,
        1,
        0,
        0,
        -1,
        0,
        0,
        0,
        0,
        0,
        1
      ],
      "name": "c9ad525ee59941f188b0d740237b9024.fbx"
    },
    {
      "children": [
        4
      ],
      "name": "RootNode"
    },
    {
      "children": [
        5,
        7,
        9,
        11,
        13,
        15,
        17,
        19,
        21
      ],
      "name": "Patrizio_LO"
    },
    {
      "children": [
        6
      ],
      "name": "Pantofole_LO"
    },
    {
      "mesh": 0,
      "name": "Pantofole_LO_lambert1_0"
    },
    {
      "children": [
        8
      ],
      "name": "Sopracciglia_LO"
    },
    {
      "mesh": 1,
      "name": "Sopracciglia_LO_lambert1_0"
    },
    {
      "children": [
        10
      ],
      "name": "Baffi_LO"
    },
    {
      "mesh": 2,
      "name": "Baffi_LO_lambert1_0"
    },
    {
      "children": [
        12
      ],
      "name": "Capelli_LO"
    },
    {
      "mesh": 3,
      "name": "Capelli_LO_lambert1_0"
    },
    {
      "children": [
        14
      ],
      "name": "Pantaloni_LO"
    },
    {
      "mesh": 4,
      "name": "Pantaloni_LO_lambert1_0"
    },
    {
      "children": [
        16
      ],
      "name": "Calze_LO"
    },
    {
      "mesh": 5,
      "name": "Calze_LO_lambert1_0"
    },
    {
      "children": [
        18
      ],
      "name": "Occhi_LO"
    },
    {
      "mesh": 6,
      "name": "Occhi_LO_lambert1_0"
    },
    {
      "children": [
        20
      ],
      "name": "Corpo_LO"
    },
    {
      "mesh": 7,
      "name": "Corpo_LO_lambert1_0"
    },
    {
      "children": [
        22
      ],
      "name": "Maglia_LO"
    },
    {
      "mesh": 8,
      "name": "Maglia_LO_lambert1_0"
    }
  ],
  "samplers": [
    {
      "magFilter": 9729,
      "minFilter": 9987,
      "wrapS": 10497,
      "wrapT": 10497
    }
  ],
  "scene": 0,
  "scenes": [
    {
      "name": "OSG_Scene",
      "nodes": [
        0
      ]
    }
  ],
  "textures": [
    {
      "sampler": 0,
      "source": 0
    },
    {
      "sampler": 0,
      "source": 1
    },
    {
      "sampler": 0,
      "source": 2
    }
  ]
}

