{
  "accessors": [
    {
      "bufferView": 2,
      "componentType": 5126,
      "count": 8456,
      "max": [
        5.5373902320861816,
        17.850685119628906,
        3.4652841091156006
      ],
      "min": [
        -5.5833897590637207,
        10.205880165100098,
        -0.80114400386810303
      ],
      "type": "VEC3"
    },
    {
      "bufferView": 2,
      "byteOffset": 101472,
      "componentType": 5126,
      "count": 8456,
      "max": [
        0.99999052286148071,
        0.99879008531570435,
        0.99998378753662109
      ],
      "min": [
        -0.999839186668396,
        -0.99946093559265137,
        -0.9996112585067749
      ],
      "type": "VEC3"
    },
    {
      "bufferView": 1,
      "componentType": 5126,
      "count": 8456,
      "max": [
        0.9935150146484375,
        0.97385597229003906
      ],
      "min": [
        0.0092080002650618553,
        0.01105399988591671
      ],
      "type": "VEC2"
    },
    {
      "bufferView": 0,
      "componentType": 5125,
      "count": 46500,
      "max": [
        8455
      ],
      "min": [
        0
      ],
      "type": "SCALAR"
    },
    {
      "bufferView": 2,
      "byteOffset": 202944,
      "componentType": 5126,
      "count": 3050,
      "max": [
        0.8340269923210144,
        18.029430389404297,
        1.440147876739502
      ],
      "min": [
        -0.89276182651519775,
        15.951936721801758,
        -0.60452443361282349
      ],
      "type": "VEC3"
    },
    {
      "bufferView": 2,
      "byteOffset": 239544,
      "componentType": 5126,
      "count": 3050,
      "max": [
        0.99846673011779785,
        0.99998241662979126,
        0.99853026866912842
      ],
      "min": [
        -0.99991863965988159,
        -0.97667336463928223,
        -0.99971592426300049
      ],
      "type": "VEC3"
    },
    {
      "bufferView": 1,
      "byteOffset": 67648,
      "componentType": 5126,
      "count": 3050,
      "max": [
        0.99260002374649048,
        0.99159997701644897
      ],
      "min": [
        0.0074000000022351742,
        0.0074000000022351742
      ],
      "type": "VEC2"
    },
    {
      "bufferView": 0,
      "byteOffset": 186000,
      "componentType": 5125,
      "count": 11034,
      "max": [
        3049
      ],
      "min": [
        0
      ],
      "type": "SCALAR"
    },
    {
      "bufferView": 2,
      "byteOffset": 276144,
      "componentType": 5126,
      "count": 1076,
      "max": [
        0.42958706617355347,
        16.860580444335938,
        1.4216468334197998
      ],
      "min": [
        -0.47558706998825073,
        16.558773040771484,
        1.1692397594451904
      ],
      "type": "VEC3"
    },
    {
      "bufferView": 2,
      "byteOffset": 289056,
      "componentType": 5126,
      "count": 1076,
      "max": [
        0.99866682291030884,
        0.99968141317367554,
        0.99967145919799805
      ],
      "min": [
        -0.99884551763534546,
        -0.9991300106048584,
        -0.39879608154296875
      ],
      "type": "VEC3"
    },
    {
      "bufferView": 1,
      "byteOffset": 92048,
      "componentType": 5126,
      "count": 1076,
      "max": [
        0.991100013256073,
        0.97630000114440918
      ],
      "min": [
        0.036200001835823059,
        0.010999999940395355
      ],
      "type": "VEC2"
    },
    {
      "bufferView": 0,
      "byteOffset": 230136,
      "componentType": 5125,
      "count": 6120,
      "max": [
        1075
      ],
      "min": [
        0
      ],
      "type": "SCALAR"
    },
    {
      "bufferView": 2,
      "byteOffset": 301968,
      "componentType": 5126,
      "count": 124,
      "max": [
        0.56518822908401489,
        16.851009368896484,
        1.5121606588363647
      ],
      "min": [
        -0.61118823289871216,
        16.723667144775391,
        1.2172906398773193
      ],
      "type": "VEC3"
    },
    {
      "bufferView": 2,
      "byteOffset": 303456,
      "componentType": 5126,
      "count": 124,
      "max": [
        0.9900016188621521,
        0.8818589448928833,
        0.9880862832069397
      ],
      "min": [
        -0.95357799530029297,
        -0.98822945356369019,
        -0.14625662565231323
      ],
      "type": "VEC3"
    },
    {
      "bufferView": 1,
      "byteOffset": 100656,
      "componentType": 5126,
      "count": 124,
      "max": [
        0.96569997072219849,
        0.6021999716758728
      ],
      "min": [
        0.025800000876188278,
        0.11640000343322754
      ],
      "type": "VEC2"
    },
    {
      "bufferView": 0,
      "byteOffset": 254616,
      "componentType": 5125,
      "count": 576,
      "max": [
        123
      ],
      "min": [
        0
      ],
      "type": "SCALAR"
    },
    {
      "bufferView": 2,
      "byteOffset": 304944,
      "componentType": 5126,
      "count": 8864,
      "max": [
        5.1702880859375,
        15.877583503723145,
        2.3780531883239746
      ],
      "min": [
        -5.2612414360046387,
        0.68396377563476562,
        -1.7811726331710815
      ],
      "type": "VEC3"
    },
    {
      "bufferView": 2,
      "byteOffset": 411312,
      "componentType": 5126,
      "count": 8864,
      "max": [
        0.99961793422698975,
        0.99911618232727051,
        0.99999189376831055
      ],
      "min": [
        -0.99957621097564697,
        -0.99827218055725098,
        -0.999847412109375
      ],
      "type": "VEC3"
    },
    {
      "bufferView": 1,
      "byteOffset": 101648,
      "componentType": 5126,
      "count": 8864,
      "max": [
        0.9211999773979187,
        0.98860001564025879
      ],
      "min": [
        0.011400000192224979,
        0.011400000192224979
      ],
      "type": "VEC2"
    },
    {
      "bufferView": 1,
      "byteOffset": 172560,
      "componentType": 5126,
      "count": 8864,
      "max": [
        0.9211999773979187,
        0.98860001564025879
      ],
      "min": [
        0.011400000192224979,
        0.011400000192224979
      ],
      "type": "VEC2"
    },
    {
      "bufferView": 0,
      "byteOffset": 256920,
      "componentType": 5125,
      "count": 50016,
      "max": [
        8863
      ],
      "min": [
        0
      ],
      "type": "SCALAR"
    },
    {
      "bufferView": 2,
      "byteOffset": 517680,
      "componentType": 5126,
      "count": 696,
      "max": [
        1.0153763294219971,
        18.093965530395508,
        1.9247899055480957
      ],
      "min": [
        -1.0777382850646973,
        17.079402923583984,
        -0.76183438301086426
      ],
      "type": "VEC3"
    },
    {
      "bufferView": 2,
      "byteOffset": 526032,
      "componentType": 5126,
      "count": 696,
      "max": [
        0.99039041996002197,
        0.99995499849319458,
        0.98837655782699585
      ],
      "min": [
        -0.96525061130523682,
        -0.99462985992431641,
        -0.9988599419593811
      ],
      "type": "VEC3"
    },
    {
      "bufferView": 1,
      "byteOffset": 243472,
      "componentType": 5126,
      "count": 696,
      "max": [
        1,
        0.96850001811981201
      ],
      "min": [
        0,
        0.035999998450279236
      ],
      "type": "VEC2"
    },
    {
      "bufferView": 1,
      "byteOffset": 249040,
      "componentType": 5126,
      "count": 696,
      "max": [
        1,
        0.96850001811981201
      ],
      "min": [
        0,
        0.035999998450279236
      ],
      "type": "VEC2"
    },
    {
      "bufferView": 0,
      "byteOffset": 456984,
      "componentType": 5125,
      "count": 3732,
      "max": [
        695
      ],
      "min": [
        0
      ],
      "type": "SCALAR"
    },
    {
      "bufferView": 2,
      "byteOffset": 534384,
      "componentType": 5126,
      "count": 2404,
      "max": [
        2.4913527965545654,
        1.3493533134460449,
        2.1771714687347412
      ],
      "min": [
        -2.4913527965545654,
        -0.24822616577148438,
        -0.54179483652114868
      ],
      "type": "VEC3"
    },
    {
      "bufferView": 2,
      "byteOffset": 563232,
      "componentType": 5126,
      "count": 2404,
      "max": [
        0.99997198581695557,
        0.99760603904724121,
        0.99510544538497925
      ],
      "min": [
        -0.99977707862854004,
        -0.99962055683135986,
        -0.99939626455307007
      ],
      "type": "VEC3"
    },
    {
      "bufferView": 1,
      "byteOffset": 254608,
      "componentType": 5126,
      "count": 2404,
      "max": [
        0.84609997272491455,
        0.88529998064041138
      ],
      "min": [
        0.02500000037252903,
        0.036499999463558197
      ],
      "type": "VEC2"
    },
    {
      "bufferView": 0,
      "byteOffset": 471912,
      "componentType": 5125,
      "count": 11748,
      "max": [
        2403
      ],
      "min": [
        0
      ],
      "type": "SCALAR"
    }
  ],
  "asset": {
    "extras": {
      "author": "dlpatcu (https://sketchfab.com/dlpatcu)",
      "license": "CC-BY-4.0 (http://creativecommons.org/licenses/by/4.0/)",
      "source": "https://sketchfab.com/3d-models/fedora-man-1-9d13cfbd0fc94e6a800142e3db56a98d",
      "title": "Fedora Man 1"
    },
    "generator": "Sketchfab-7.95.0",
    "version": "2.0"
  },
  "bufferViews": [
    {
      "buffer": 0,
      "byteLength": 518904,
      "byteOffset": 0,
      "name": "floatBufferViews",
      "target": 34963
    },
    {
      "buffer": 0,
      "byteLength": 273840,
      "byteOffset": 518904,
      "byteStride": 8,
      "name": "floatBufferViews",
      "target": 34962
    },
    {
      "buffer": 0,
      "byteLength": 592080,
      "byteOffset": 792744,
      "byteStride": 12,
      "name": "floatBufferViews",
      "target": 34962
    }
  ],
  "buffers": [
    {
      "byteLength": 1384824,
      "uri": "scene.bin"
    }
  ],
  "materials": [
    {
      "doubleSided": true,
      "emissiveFactor": [
        0,
        0,
        0
      ],
      "name": "fedora_man_1",
      "pbrMetallicRoughness": {
        "baseColorFactor": [
          0.84299999999999997,
          0.63900000000000001,
          0.51700000000000002,
          1
        ],
        "metallicFactor": 0,
        "roughnessFactor": 0.9365577241935662
      }
    },
    {
      "doubleSided": true,
      "emissiveFactor": [
        0,
        0,
        0
      ],
      "name": "short01",
      "pbrMetallicRoughness": {
        "baseColorFactor": [
          1,
          1,
          1,
          1
        ],
        "metallicFactor": 0,
        "roughnessFactor": 0.99004827543760066
      }
    },
    {
      "doubleSided": true,
      "emissiveFactor": [
        0,
        0,
        0
      ],
      "name": "high-poly",
      "pbrMetallicRoughness": {
        "baseColorFactor": [
          1,
          1,
          1,
          1
        ],
        "metallicFactor": 0,
        "roughnessFactor": 0.78852574731188718
      }
    },
    {
      "doubleSided": true,
      "emissiveFactor": [
        0,
        0,
        0
      ],
      "name": "eyebrow004",
      "pbrMetallicRoughness": {
        "baseColorFactor": [
          1,
          1,
          1,
          1
        ],
        "metallicFactor": 0,
        "roughnessFactor": 1
      }
    },
    {
      "doubleSided": true,
      "emissiveFactor": [
        0,
        0,
        0
      ],
      "name": "male_casualsuit01",
      "pbrMetallicRoughness": {
        "baseColorFactor": [
          1,
          1,
          1,
          1
        ],
        "metallicFactor": 0,
        "roughnessFactor": 0.78852574731188718
      }
    },
    {
      "doubleSided": true,
      "emissiveFactor": [
        0,
        0,
        0
      ],
      "name": "fedora",
      "pbrMetallicRoughness": {
        "baseColorFactor": [
          0.96862700000000002,
          0.96862700000000002,
          0.96862700000000002,
          1
        ],
        "metallicFactor": 0,
        "roughnessFactor": 0.9941948202894586
      }
    },
    {
      "doubleSided": true,
      "emissiveFactor": [
        0,
        0,
        0
      ],
      "name": "shoes03",
      "pbrMetallicRoughness": {
        "baseColorFactor": [
          1,
          1,
          1,
          1
        ],
        "metallicFactor": 0,
        "roughnessFactor": 0.99318921112206415
      }
    }
  ],
  "meshes": [
    {
      "name": "fedora_man_1Mesh_fedora_man_1_0",
      "primitives": [
        {
          "attributes": {
            "NORMAL": 1,
            "POSITION": 0,
            "TEXCOORD_0": 2
          },
          "indices": 3,
          "material": 0,
          "mode": 4
        }
      ]
    },
    {
      "name": "short01Mesh_short01_0",
      "primitives": [
        {
          "attributes": {
            "NORMAL": 5,
            "POSITION": 4,
            "TEXCOORD_0": 6
          },
          "indices": 7,
          "material": 1,
          "mode": 4
        }
      ]
    },
    {
      "name": "high-polyMesh_high-poly_0",
      "primitives": [
        {
          "attributes": {
            "NORMAL": 9,
            "POSITION": 8,
            "TEXCOORD_0": 10
          },
          "indices": 11,
          "material": 2,
          "mode": 4
        }
      ]
    },
    {
      "name": "eyebrow004Mesh_eyebrow004_0",
      "primitives": [
        {
          "attributes": {
            "NORMAL": 13,
            "POSITION": 12,
            "TEXCOORD_0": 14
          },
          "indices": 15,
          "material": 3,
          "mode": 4
        }
      ]
    },
    {
      "name": "male_casualsuit01Mesh_male_casualsuit01_0",
      "primitives": [
        {
          "attributes": {
            "NORMAL": 17,
            "POSITION": 16,
            "TEXCOORD_0": 18,
            "TEXCOORD_1": 19
          },
          "indices": 20,
          "material": 4,
          "mode": 4
        }
      ]
    },
    {
      "name": "fedoraMesh_fedora_0",
      "primitives": [
        {
          "attributes": {
            "NORMAL": 22,
            "POSITION": 21,
            "TEXCOORD_0": 23,
            "TEXCOORD_1": 24
          },
          "indices": 25,
          "material": 5,
          "mode": 4
        }
      ]
    },
    {
      "name": "shoes03Mesh_shoes03_0",
      "primitives": [
        {
          "attributes": {
            "NORMAL": 27,
            "POSITION": 26,
            "TEXCOORD_0": 28
          },
          "indices": 29,
          "material": 6,
          "mode": 4
        }
      ]
    }
  ],
  "nodes": [
    {
      "children": [
        1
      ],
      "name": "RootNode (gltf orientation matrix)",
      "rotation": [
        -0.70710678118654746,
        -0,
        -0,
        0.70710678118654757
      ]
    },
    {
      "children": [
        2
      ],
      "name": "RootNode (model correction matrix)"
    },
    {
      "children": [
        3
      ],
      "matrix": [
        1,
        0,
        0,
        0,
        0,
        0,
        1,
        0,
        0,
        -1,
        0,
        0,
        0,
        0,
        0,
        1
      ],
      "name": "e8a7c0e470e3447fa9a00375b1def646.fbx"
    },
    {
      "children": [
        4,
        6,
        8,
        10,
        12,
        14,
        16
      ],
      "name": "RootNode"
    },
    {
      "children": [
        5
      ],
      "name": "fedora_man_1Mesh"
    },
    {
      "mesh": 0,
      "name": "fedora_man_1Mesh_fedora_man_1_0"
    },
    {
      "children": [
        7
      ],
      "name": "short01Mesh"
    },
    {
      "mesh": 1,
      "name": "short01Mesh_short01_0"
    },
    {
      "children": [
        9
      ],
      "name": "high-polyMesh"
    },
    {
      "mesh": 2,
      "name": "high-polyMesh_high-poly_0"
    },
    {
      "children": [
        11
      ],
      "name": "eyebrow004Mesh"
    },
    {
      "mesh": 3,
      "name": "eyebrow004Mesh_eyebrow004_0"
    },
    {
      "children": [
        13
      ],
      "name": "male_casualsuit01Mesh"
    },
    {
      "mesh": 4,
      "name": "male_casualsuit01Mesh_male_casualsuit01_0"
    },
    {
      "children": [
        15
      ],
      "name": "fedoraMesh"
    },
    {
      "mesh": 5,
      "name": "fedoraMesh_fedora_0"
    },
    {
      "children": [
        17
      ],
      "name": "shoes03Mesh"
    },
    {
      "mesh": 6,
      "name": "shoes03Mesh_shoes03_0"
    }
  ],
  "scene": 0,
  "scenes": [
    {
      "name": "OSG_Scene",
      "nodes": [
        0
      ]
    }
  ]
}

